<?xml version="1.0" encoding="iso-8859-1"?>
<!-- Uploaded to: SVG Repo, www.svgrepo.com, Generator: SVG Repo Mixer Tools -->
<svg height="800px" width="800px" version="1.1" id="Layer_1" xmlns="http://www.w3.org/2000/svg" xmlns:xlink="http://www.w3.org/1999/xlink" 
	 viewBox="0 0 512 512" xml:space="preserve">
<g transform="translate(-1)">
	<g>
		<path style="fill:#D99F4C;" d="M171.667,73.112c2.816-0.282,5.641-0.58,8.533-0.58h-8.533V73.112z"/>
		<path style="fill:#D99F4C;" d="M416.421,72.535h-236.22c47.13,0,85.333,38.204,85.333,85.333c0,23.859-9.822,45.406-25.6,60.894
			v212.173h34.133h188.612c8.943,0,16.188-7.245,16.188-16.179V218.762c16.99-16.674,27.068-40.371,25.421-66.423
			C501.422,106.959,461.896,72.535,416.421,72.535"/>
	</g>
	<g>
		<path style="fill:#AA7835;" d="M325.267,226.135h-85.333c-4.71,0-8.533-3.814-8.533-8.533c0-4.719,3.823-8.533,8.533-8.533h85.333
			c4.71,0,8.533,3.814,8.533,8.533C333.8,222.321,329.977,226.135,325.267,226.135"/>
		<path style="fill:#AA7835;" d="M376.467,226.135H359.4c-4.71,0-8.533-3.814-8.533-8.533c0-4.719,3.823-8.533,8.533-8.533h17.067
			c4.71,0,8.533,3.814,8.533,8.533C385,222.321,381.177,226.135,376.467,226.135"/>
	</g>
	<path style="fill:#EFDFA0;" d="M265.224,150.512c-3.26-38.878-33.63-71.322-72.226-77.03c-20.369-3.012-39.509,1.323-55.467,10.564
		c-15.949-9.242-35.098-13.577-55.467-10.564c-38.588,5.709-68.958,38.153-72.218,77.03c-2.253,26.761,7.893,51.183,25.284,68.25
		v195.994c0,8.934,7.245,16.179,16.188,16.179h188.612V218.761C257.323,201.695,267.469,177.272,265.224,150.512"/>
	<g>
		<path style="fill:#D99F4C;" d="M120.467,405.335h-51.2c-4.71,0-8.533-3.814-8.533-8.533v-76.8c0-4.719,3.823-8.533,8.533-8.533
			s8.533,3.814,8.533,8.533v68.267h42.667c4.71,0,8.533,3.814,8.533,8.533C129,401.521,125.177,405.335,120.467,405.335"/>
		<path style="fill:#D99F4C;" d="M120.467,217.602c-2.185,0-4.369-0.836-6.033-2.5l-8.533-8.533c-3.337-3.337-3.337-8.73,0-12.066
			s8.73-3.337,12.066,0l8.533,8.533c3.337,3.337,3.337,8.73,0,12.066C124.836,216.765,122.651,217.602,120.467,217.602"/>
		<path style="fill:#D99F4C;" d="M180.2,166.402h-8.533c-4.71,0-8.533-3.814-8.533-8.533c0-4.719,3.823-8.533,8.533-8.533h8.533
			c4.71,0,8.533,3.814,8.533,8.533C188.733,162.587,184.91,166.402,180.2,166.402"/>
		<path style="fill:#D99F4C;" d="M197.267,243.202c-4.71,0-8.533-3.814-8.533-8.533v-8.533c0-4.719,3.823-8.533,8.533-8.533
			s8.533,3.814,8.533,8.533v8.533C205.8,239.387,201.977,243.202,197.267,243.202"/>
		<path style="fill:#D99F4C;" d="M60.733,157.868c-2.185,0-4.369-0.836-6.033-2.5c-3.337-3.337-3.337-8.73,0-12.066l8.533-8.533
			c3.337-3.337,8.73-3.337,12.066,0c3.337,3.337,3.337,8.73,0,12.066l-8.533,8.533C65.102,157.032,62.918,157.868,60.733,157.868"/>
		<path style="fill:#D99F4C;" d="M120.467,302.935c-2.185,0-4.369-0.836-6.033-2.5l-8.533-8.533c-3.337-3.337-3.337-8.73,0-12.066
			c3.337-3.337,8.73-3.337,12.066,0l8.533,8.533c3.337,3.337,3.337,8.73,0,12.066C124.836,302.099,122.651,302.935,120.467,302.935"
			/>
		<path style="fill:#D99F4C;" d="M188.733,379.735c-2.185,0-4.369-0.836-6.033-2.5c-3.337-3.337-3.337-8.73,0-12.066l8.533-8.533
			c3.337-3.337,8.73-3.337,12.066,0s3.337,8.73,0,12.066l-8.533,8.533C193.102,378.899,190.918,379.735,188.733,379.735"/>
	</g>
	<path style="fill:#CC6329;" d="M504.467,439.468H9.533c-4.71,0-8.533-3.814-8.533-8.533c0-4.719,3.823-8.533,8.533-8.533h494.933
		c4.71,0,8.533,3.814,8.533,8.533C513,435.654,509.177,439.468,504.467,439.468"/>
	<path style="fill:#AA7835;" d="M485.122,211.895c-1.562-1.715-3.755-2.825-6.255-2.825h-25.6c-4.71,0-8.533,3.814-8.533,8.533
		c0,4.71,3.823,8.533,8.533,8.533h25.6v-7.381C481.078,216.589,483.16,214.293,485.122,211.895"/>
</g>
</svg>