<?xml version="1.0" encoding="utf-8"?>
<!-- Designed by Vexels.com - 2019 All Rights Reserved - https://vexels.com/terms-and-conditions/  -->
<svg version="1.1" id="Layer_1" xmlns="http://www.w3.org/2000/svg" xmlns:xlink="http://www.w3.org/1999/xlink" x="0px" y="0px"
	 viewBox="0 0 1200 1200" enable-background="new 0 0 1200 1200" xml:space="preserve">
<g>
	<path fill="#446C82" d="M64.491,563.85h1073.922c0,0,6.067,44.165-50.725,57.96c-94.204,22.883-55.353,385.839-475.366,385.522
		c-444.817-0.336-409.467-318.827-473.232-370.622C139.089,636.711,44.201,618.923,64.491,563.85z"/>
	<path fill="#5587A4" d="M932.131,655.639c9.493-22.152,97.344-30.286,84.622-91.788h-836.26
		c11.955,43.778,44.641,72.442,85.207,88.044c-12.526,135.282,57.097,262.169,165.105,332.456
		c49.466,14.399,109.092,22.927,181.516,22.982c38.314,0.029,72.769-2.994,103.896-8.478
		c36.126-18.948,81.048-42.095,111.082-69.905C902.179,857.814,894.691,745.494,932.131,655.639z"/>
	<path fill="#93AA3A" d="M126.81,563.85h949.283c0,0-14.437-82.438-82.609-86.957s-102.607,23.189-102.607,23.189
		s-26.38-100.001-106.091-117.392c-47.837-11.594-92.754,20.29-92.754,20.29s-28.986-76.812-102.899-72.464
		c-49.276-0.178-79.711,71.015-79.711,71.015s-55.065-41.046-111.595-13.044s-88.407,113.044-88.407,113.044
		S152.898,417.472,126.81,563.85z"/>
	<path fill="#B5CF52" d="M980.69,476.415c-59.675-0.561-89.812,23.667-89.812,23.667s-0.207-0.768-0.601-2.09
		c-6.564,9.594-15.996,15.427-29.282,11.631c-7.488,0-18.72-14.976-22.464-22.464c-17.673-44.183-49.298-83.652-91.134-105.803
		c-31.478,4.689-55.365,21.624-55.365,21.624s-28.987-76.812-102.9-72.464c-49.276-0.178-79.711,71.015-79.711,71.015
		s-20.789-15.467-49.916-20.927c-46.297,11.943-78.345,65.175-92.718,114.044c-3.744,11.232-49.397,34.421-92.348-7.467
		c-22.189,11.96-50.687,13.153-68.643,33.674c-13.15,10.52-11.508,26.583-6.779,42.996h819.853
		C1030.444,529.826,1009.646,499.528,980.69,476.415z"/>
	<path fill="#E79E29" d="M729.638,380.365L724.4,188.002c0,0,231.433,0,336.491,75.363L878.991,456.603
		C878.991,456.603,825.312,345.064,729.638,380.365z"/>
	<path fill="#E17821" d="M902.983,249.535c-11.648,23.364,0,26.667,8.421,51.93s-8.044,22.515-18.759,40.731
		s55.25,25.435,51.039-11.859s40.851-9.123,37.895-51.119S911.614,232.223,902.983,249.535z"/>
	<path fill="#E17821" d="M835.615,342.196c-11.877,30.505,19.649,62.642,30.877,21.023S845.44,316.962,835.615,342.196z"/>
	<path fill="#74B537" d="M544.578,438.467c-2.136-49.462,45.937-65.588,53.845-41.729s-14.294,22.477-15.122,47.028
		C582.473,468.317,545.669,463.717,544.578,438.467z"/>
	<path fill="#CB6121" d="M365.449,461.668c14.742-21.546,49.415-30.587,60.351,8.931c5.715,20.652,22.237,19.988,16.842,37.385
		c-5.421,17.482-42.105,13.874-54.737-6.396C375.273,481.317,347.203,488.335,365.449,461.668z"/>
	<path fill="#74B537" d="M772.458,470.552c1.404-45.256,32.453-59.465,46.015-37.423c6.757,10.982,17.247,27.067-10.096,51.125
		C786.399,503.592,771.489,501.793,772.458,470.552z"/>
	<path fill="#CB6121" d="M623.686,505.293c13.372-27.2,43.509-17.463,70.175-10.446s29.474,13.906,0,30.088
		C664.388,541.117,605.441,542.405,623.686,505.293z"/>
	<path fill="#79ABC6" d="M714.927,649.533c-6.558-48.089,25.032-38.283,22.023-85.683l-110.628,0
		c25.206,147.043,26.614,302.819-33.934,443.223c6.547,0.151,13.166,0.254,19.934,0.26c17.974,0.014,35.068-0.669,51.398-1.937
		C721.257,915.611,729.609,752.305,714.927,649.533z"/>
	<path fill="#283B2F" d="M124.58,641.876c5.407,1.688,10.153,5.904,14.532,12.073c0.147,0.23,0.314,0.442,0.478,0.66
		c9.787,14.197,17.733,38.316,27.012,66.497c36.789,111.735,98.163,298.218,426.164,298.207c2.296,0,4.632-0.007,6.954-0.026
		c0.096-0.001,0.185-0.027,0.28-0.031c0.095,0.004,0.184,0.03,0.28,0.031c2.344,0.018,4.636,0.029,6.954,0.026
		c327.95-0.011,389.383-186.479,426.164-298.207c9.278-28.182,17.224-52.298,27.01-66.495c0.166-0.219,0.333-0.433,0.482-0.665
		c4.377-6.168,9.124-10.383,14.53-12.071c36.643-11.444,60.152-27.59,69.874-47.992c8.292-17.396,3.229-31.235,2.622-32.753
		c-1.7-4.278-5.835-7.082-10.435-7.082h-53.378c-0.006-0.032-0.004-0.063-0.01-0.095c-0.475-2.307-12.205-56.771-60.88-80.108
		c-34.486-16.53-77.739-12.939-128.729,10.643c-1.775-5.521-4.273-12.444-7.512-20.069
		c50.52-41.355,178.161-188.425,183.852-194.995c2.183-2.516,3.133-5.868,2.6-9.155c-0.53-3.287-2.494-6.168-5.36-7.865
		c-133.932-79.377-334.905-71.735-343.405-71.363c-2.991,0.128-5.81,1.448-7.824,3.66c-2.015,2.216-3.064,5.144-2.91,8.135
		l9.466,184.62c-8.842,2.766-17.879,6.291-27.129,10.671c-12.456-22.708-46.222-73.488-96.263-67.967
		c-50.052-5.488-83.805,45.268-96.253,67.967c-43.904-20.789-83.3-23.418-117.241-7.773c-49.681,22.903-72.69,78.328-80.982,104.133
		c-50.986-23.579-94.243-27.166-128.729-10.643c-48.676,23.338-60.405,77.801-60.88,80.108c-0.006,0.032-0.004,0.063-0.01,0.095
		H62.519c-4.6,0-8.735,2.804-10.435,7.082c-0.607,1.517-5.671,15.356,2.622,32.753C64.428,614.286,87.938,630.432,124.58,641.876z
		 M600.455,996.825c-0.029,0-0.058,0-0.091,0c-0.124,0-0.24,0.033-0.364,0.037c-0.123-0.004-0.24-0.037-0.364-0.037
		c-0.033,0-0.062,0-0.091,0c-2.329,0.018-4.6,0.029-6.896,0.029c-311.57,0-367.58-170.004-404.71-282.77
		c-6.831-20.747-13.033-39.579-20.273-54.946h431.966c0.126,0,0.243-0.033,0.367-0.037c0.125,0.004,0.241,0.037,0.367,0.037h431.968
		c-7.238,15.366-13.44,34.196-20.271,54.942C974.664,827.676,918.274,999.311,600.455,996.825z M736.95,203.263
		c42.829-0.347,197.715,2.72,307.856,61.812c-29.75,33.971-124.996,141.722-167.961,178.55
		c-13.184-23.837-33.391-49.461-63.348-63.269c-20.669-9.526-43.378-12.237-67.889-8.233L736.95,203.263z M186.503,494.106
		c30.548-14.651,71.275-9.144,121.044,16.362c3.09,1.583,6.749,1.645,9.89,0.172c3.148-1.473,5.433-4.322,6.194-7.711
		c0.172-0.768,17.832-77.074,72.277-102.17c29.857-13.762,66.046-9.609,107.556,12.354c2.75,1.455,5.993,1.7,8.925,0.684
		c2.943-1.02,5.331-3.214,6.592-6.058c0.318-0.713,32.076-71.044,79.264-65.194c0.366,0.045,0.72,0.015,1.082,0.024
		c0.227,0.021,0.459,0.008,0.689,0.015c0.216-0.007,0.434,0.005,0.647-0.015c0.366-0.009,0.725,0.021,1.096-0.025
		c47.045-5.868,78.953,64.496,79.267,65.194c1.261,2.845,3.649,5.038,6.592,6.058c2.947,1.016,6.175,0.771,8.925-0.687
		c41.473-21.934,77.629-26.106,107.464-12.391c54.317,24.965,72.196,101.45,72.368,102.21c0.76,3.389,3.046,6.238,6.194,7.711
		c3.144,1.473,6.797,1.411,9.89-0.172c49.666-25.451,90.327-30.994,120.864-16.449c31.45,14.978,43.956,48.029,47.57,60.032H600.367
		c-0.126,0-0.243,0.033-0.367,0.037c-0.125-0.004-0.241-0.037-0.367-0.037H139.089C142.625,542.119,154.947,509.233,186.503,494.106
		z M599.633,576.514c0.126,0,0.243-0.033,0.367-0.037c0.125,0.004,0.241,0.037,0.367,0.037h526.985
		c-0.314,2.391-1.075,5.25-2.676,8.402c-4.976,9.784-18.72,23.89-55.955,35.52c-9.018,2.816-16.417,8.42-22.806,16.237H600.367
		c-0.126,0-0.243,0.033-0.367,0.037c-0.125-0.004-0.241-0.037-0.367-0.037H154.086c-6.39-7.818-13.789-13.421-22.807-16.237
		c-37.235-11.63-50.979-25.736-55.955-35.52c-1.601-3.155-2.366-6.018-2.684-8.402H599.633z"/>
</g>
</svg>
